<mxfile host="2276f42a-ded4-4329-b0c0-949c0528b2d6" modified="2021-09-14T09:05:31.170Z" agent="5.0 (Windows NT 6.1; Win64; x64) AppleWebKit/537.36 (KHTML, like Gecko) Code/1.47.3 Chrome/78.0.3904.130 Electron/7.3.2 Safari/537.36" etag="lgUZojXCuM1IO7xvFt4L" version="13.1.3" pages="5">
    <diagram id="8It3uFXG8_qd-ijJooCu" name="draw">
        <mxGraphModel dx="822" dy="480" grid="1" gridSize="10" guides="1" tooltips="1" connect="1" arrows="1" fold="1" page="1" pageScale="1" pageWidth="2339" pageHeight="3300" math="0" shadow="0">
            <root>
                <mxCell id="2YqwzUXEGQ6_o2DR0RQk-0"/>
                <mxCell id="2YqwzUXEGQ6_o2DR0RQk-1" parent="2YqwzUXEGQ6_o2DR0RQk-0"/>
                <mxCell id="c1gv78v9AIyFc636XdBO-0" value="&lt;table cellpadding=&quot;4&quot; cellspacing=&quot;0&quot; border=&quot;1&quot; style=&quot;font-size: 1em ; width: 100% ; height: 100%&quot;&gt;&lt;tbody&gt;&lt;tr&gt;&lt;th&gt;Content&lt;/th&gt;&lt;th&gt;Type&lt;/th&gt;&lt;/tr&gt;&lt;tr&gt;&lt;td&gt;Graph&lt;/td&gt;&lt;td&gt;&lt;ol&gt;&lt;li&gt;mindmap&lt;/li&gt;&lt;li&gt;table&lt;/li&gt;&lt;/ol&gt;&lt;/td&gt;&lt;/tr&gt;&lt;tr&gt;&lt;td&gt;&lt;ol&gt;&lt;li&gt;Plugin&lt;/li&gt;&lt;/ol&gt;&lt;/td&gt;&lt;td&gt;&lt;ol&gt;&lt;li&gt;&lt;span style=&quot;text-align: center&quot;&gt;./plugins/explore.js&lt;/span&gt;&lt;/li&gt;&lt;li&gt;./plugins/text.js&lt;/li&gt;&lt;/ol&gt;&lt;/td&gt;&lt;/tr&gt;&lt;tr&gt;&lt;td&gt;Text&lt;/td&gt;&lt;td&gt;&lt;ol&gt;&lt;li&gt;link&lt;/li&gt;&lt;li&gt;image&lt;/li&gt;&lt;li&gt;rule&lt;/li&gt;&lt;/ol&gt;&lt;/td&gt;&lt;/tr&gt;&lt;/tbody&gt;&lt;/table&gt; " style="verticalAlign=top;align=left;overflow=fill;fontSize=12;fontFamily=Helvetica;html=1" parent="2YqwzUXEGQ6_o2DR0RQk-1" vertex="1">
                    <mxGeometry x="15" y="15" width="250" height="230" as="geometry"/>
                </mxCell>
            </root>
        </mxGraphModel>
    </diagram>
    <diagram id="WA9nEnlLrRtTKZ29Y5Rw" name="Flowchart">
        <mxGraphModel dx="822" dy="480" grid="1" gridSize="10" guides="1" tooltips="1" connect="1" arrows="1" fold="1" page="1" pageScale="1" pageWidth="1169" pageHeight="1654" math="0" shadow="0">
            <root>
                <mxCell id="0"/>
                <mxCell id="1" parent="0"/>
                <mxCell id="6opnw4jvnDFSU7TCie2I-1" style="edgeStyle=orthogonalEdgeStyle;rounded=0;orthogonalLoop=1;jettySize=auto;html=1;exitX=0.5;exitY=1;exitDx=0;exitDy=0;entryX=0.5;entryY=0;entryDx=0;entryDy=0;fontColor=#FFFFFF;labelBackgroundColor=none;" parent="1" source="t1fYcKleMOvsjPM7njyQ-1" target="t1fYcKleMOvsjPM7njyQ-2" edge="1">
                    <mxGeometry relative="1" as="geometry"/>
                </mxCell>
                <mxCell id="t1fYcKleMOvsjPM7njyQ-1" value="general rounded rectangle&lt;br style=&quot;font-size: 12px&quot;&gt;terminator: start or end" style="rounded=1;whiteSpace=wrap;html=1;fontSize=12;arcSize=50;labelBackgroundColor=none;" parent="1" vertex="1">
                    <mxGeometry x="40" y="40" width="200" height="60" as="geometry"/>
                </mxCell>
                <mxCell id="6opnw4jvnDFSU7TCie2I-2" style="edgeStyle=orthogonalEdgeStyle;rounded=0;orthogonalLoop=1;jettySize=auto;html=1;exitX=0.5;exitY=1;exitDx=0;exitDy=0;entryX=0.5;entryY=0;entryDx=0;entryDy=0;fontColor=#FFFFFF;labelBackgroundColor=none;" parent="1" source="t1fYcKleMOvsjPM7njyQ-2" target="t1fYcKleMOvsjPM7njyQ-7" edge="1">
                    <mxGeometry relative="1" as="geometry"/>
                </mxCell>
                <mxCell id="t1fYcKleMOvsjPM7njyQ-2" value="general rectangle&lt;br&gt;process: an action or an operation" style="rounded=0;whiteSpace=wrap;html=1;fontSize=12;labelBackgroundColor=none;" parent="1" vertex="1">
                    <mxGeometry x="40" y="160" width="200" height="60" as="geometry"/>
                </mxCell>
                <mxCell id="6opnw4jvnDFSU7TCie2I-3" style="edgeStyle=orthogonalEdgeStyle;rounded=0;orthogonalLoop=1;jettySize=auto;html=1;exitX=0.5;exitY=1;exitDx=0;exitDy=0;entryX=0.5;entryY=0;entryDx=0;entryDy=0;fontColor=#FFFFFF;labelBackgroundColor=none;" parent="1" source="t1fYcKleMOvsjPM7njyQ-7" target="t1fYcKleMOvsjPM7njyQ-13" edge="1">
                    <mxGeometry relative="1" as="geometry"/>
                </mxCell>
                <mxCell id="t1fYcKleMOvsjPM7njyQ-7" value="general parallelogram&lt;br&gt;data (I/o): input to or output from" style="shape=parallelogram;perimeter=parallelogramPerimeter;whiteSpace=wrap;html=1;fontSize=12;labelBackgroundColor=none;" parent="1" vertex="1">
                    <mxGeometry x="40" y="270" width="200" height="60" as="geometry"/>
                </mxCell>
                <mxCell id="6opnw4jvnDFSU7TCie2I-4" style="edgeStyle=orthogonalEdgeStyle;rounded=0;orthogonalLoop=1;jettySize=auto;html=1;exitX=0.5;exitY=1;exitDx=0;exitDy=0;entryX=0.5;entryY=0;entryDx=0;entryDy=0;entryPerimeter=0;fontColor=#FFFFFF;labelBackgroundColor=none;" parent="1" source="t1fYcKleMOvsjPM7njyQ-13" target="t1fYcKleMOvsjPM7njyQ-40" edge="1">
                    <mxGeometry relative="1" as="geometry"/>
                </mxCell>
                <mxCell id="6opnw4jvnDFSU7TCie2I-17" style="edgeStyle=orthogonalEdgeStyle;rounded=0;orthogonalLoop=1;jettySize=auto;html=1;exitX=1;exitY=0.5;exitDx=0;exitDy=0;fontColor=#FFFFFF;labelBackgroundColor=none;" parent="1" source="t1fYcKleMOvsjPM7njyQ-13" target="t1fYcKleMOvsjPM7njyQ-37" edge="1">
                    <mxGeometry relative="1" as="geometry"/>
                </mxCell>
                <mxCell id="t1fYcKleMOvsjPM7njyQ-13" value="general diamond&lt;br&gt;decision/conditional" style="rhombus;whiteSpace=wrap;html=1;fontSize=12;labelBackgroundColor=none;" parent="1" vertex="1">
                    <mxGeometry x="40" y="400" width="200" height="80" as="geometry"/>
                </mxCell>
                <mxCell id="6opnw4jvnDFSU7TCie2I-18" style="edgeStyle=orthogonalEdgeStyle;rounded=0;orthogonalLoop=1;jettySize=auto;html=1;exitX=0.5;exitY=0;exitDx=0;exitDy=0;entryX=1;entryY=0.5;entryDx=0;entryDy=0;fontColor=#FFFFFF;labelBackgroundColor=none;" parent="1" source="t1fYcKleMOvsjPM7njyQ-37" target="t1fYcKleMOvsjPM7njyQ-2" edge="1">
                    <mxGeometry relative="1" as="geometry">
                        <mxPoint x="400" y="180" as="targetPoint"/>
                    </mxGeometry>
                </mxCell>
                <mxCell id="t1fYcKleMOvsjPM7njyQ-37" value="general document&lt;br&gt;document: represent a doc or a report in a process flow" style="shape=document;whiteSpace=wrap;html=1;boundedLbl=1;fontSize=12;labelBackgroundColor=none;" parent="1" vertex="1">
                    <mxGeometry x="310" y="270" width="180" height="60" as="geometry"/>
                </mxCell>
                <mxCell id="6opnw4jvnDFSU7TCie2I-5" style="edgeStyle=orthogonalEdgeStyle;rounded=0;orthogonalLoop=1;jettySize=auto;html=1;exitX=0.5;exitY=1;exitDx=0;exitDy=0;exitPerimeter=0;entryX=0.5;entryY=0;entryDx=0;entryDy=0;entryPerimeter=0;fontColor=#FFFFFF;labelBackgroundColor=none;" parent="1" source="t1fYcKleMOvsjPM7njyQ-40" target="t1fYcKleMOvsjPM7njyQ-45" edge="1">
                    <mxGeometry relative="1" as="geometry"/>
                </mxCell>
                <mxCell id="t1fYcKleMOvsjPM7njyQ-40" value="flowchart stored data&lt;br&gt;general data storage object within an process" style="strokeWidth=2;html=1;shape=mxgraph.flowchart.stored_data;whiteSpace=wrap;fontSize=12;labelBackgroundColor=none;" parent="1" vertex="1">
                    <mxGeometry x="40" y="520" width="200" height="60" as="geometry"/>
                </mxCell>
                <mxCell id="t1fYcKleMOvsjPM7njyQ-43" style="edgeStyle=orthogonalEdgeStyle;rounded=0;jumpStyle=arc;orthogonalLoop=1;jettySize=auto;html=1;exitX=0.5;exitY=1;exitDx=0;exitDy=0;exitPerimeter=0;fontSize=12;fontColor=#FFFFFF;labelBackgroundColor=none;" parent="1" source="t1fYcKleMOvsjPM7njyQ-40" target="t1fYcKleMOvsjPM7njyQ-40" edge="1">
                    <mxGeometry relative="1" as="geometry"/>
                </mxCell>
                <mxCell id="6opnw4jvnDFSU7TCie2I-6" style="edgeStyle=orthogonalEdgeStyle;rounded=0;orthogonalLoop=1;jettySize=auto;html=1;exitX=0.5;exitY=1;exitDx=0;exitDy=0;exitPerimeter=0;entryX=0.5;entryY=0;entryDx=0;entryDy=0;fontColor=#FFFFFF;labelBackgroundColor=none;" parent="1" source="t1fYcKleMOvsjPM7njyQ-45" target="t1fYcKleMOvsjPM7njyQ-53" edge="1">
                    <mxGeometry relative="1" as="geometry"/>
                </mxCell>
                <mxCell id="t1fYcKleMOvsjPM7njyQ-45" value="flowchart direct data&lt;br&gt;represents a hard drive" style="strokeWidth=2;html=1;shape=mxgraph.flowchart.direct_data;whiteSpace=wrap;labelBackgroundColor=none;" parent="1" vertex="1">
                    <mxGeometry x="40" y="650" width="200" height="70" as="geometry"/>
                </mxCell>
                <mxCell id="XcbO7vqb9bJJ0kghSSdQ-6" value="" style="edgeStyle=orthogonalEdgeStyle;rounded=0;orthogonalLoop=1;jettySize=auto;html=1;fontColor=#FFFFFF;labelBackgroundColor=none;" parent="1" source="t1fYcKleMOvsjPM7njyQ-53" target="XcbO7vqb9bJJ0kghSSdQ-5" edge="1">
                    <mxGeometry relative="1" as="geometry"/>
                </mxCell>
                <mxCell id="t1fYcKleMOvsjPM7njyQ-53" value="flowchart internal data&lt;br&gt;represents RAM data" style="shape=internalStorage;whiteSpace=wrap;html=1;dx=15;dy=15;rounded=1;arcSize=8;strokeWidth=2;labelBackgroundColor=none;" parent="1" vertex="1">
                    <mxGeometry x="80" y="780" width="120" height="70" as="geometry"/>
                </mxCell>
                <mxCell id="6opnw4jvnDFSU7TCie2I-12" style="edgeStyle=orthogonalEdgeStyle;rounded=0;orthogonalLoop=1;jettySize=auto;html=1;exitX=0.5;exitY=1;exitDx=0;exitDy=0;exitPerimeter=0;entryX=0.5;entryY=0.143;entryDx=0;entryDy=0;entryPerimeter=0;fontColor=#FFFFFF;labelBackgroundColor=none;" parent="1" source="t1fYcKleMOvsjPM7njyQ-55" target="t1fYcKleMOvsjPM7njyQ-57" edge="1">
                    <mxGeometry relative="1" as="geometry"/>
                </mxCell>
                <mxCell id="t1fYcKleMOvsjPM7njyQ-55" value="flowchart sequential access&lt;br&gt;represents data stored in a sequence, such as tape" style="strokeWidth=2;html=1;shape=mxgraph.flowchart.sequential_data;whiteSpace=wrap;labelBackgroundColor=none;" parent="1" vertex="1">
                    <mxGeometry x="40" y="1130" width="200" height="110" as="geometry"/>
                </mxCell>
                <mxCell id="XcbO7vqb9bJJ0kghSSdQ-3" value="" style="edgeStyle=orthogonalEdgeStyle;rounded=0;orthogonalLoop=1;jettySize=auto;html=1;fontColor=#FFFFFF;labelBackgroundColor=none;" parent="1" source="t1fYcKleMOvsjPM7njyQ-57" target="XcbO7vqb9bJJ0kghSSdQ-2" edge="1">
                    <mxGeometry relative="1" as="geometry"/>
                </mxCell>
                <mxCell id="t1fYcKleMOvsjPM7njyQ-57" value="flowchart manual input&lt;br&gt;represents input from users" style="html=1;strokeWidth=2;shape=manualInput;whiteSpace=wrap;rounded=1;size=26;arcSize=11;labelBackgroundColor=none;" parent="1" vertex="1">
                    <mxGeometry x="40" y="1310" width="200" height="70" as="geometry"/>
                </mxCell>
                <mxCell id="XcbO7vqb9bJJ0kghSSdQ-11" value="" style="edgeStyle=orthogonalEdgeStyle;rounded=0;orthogonalLoop=1;jettySize=auto;html=1;fontColor=#FFFFFF;labelBackgroundColor=none;" parent="1" source="t1fYcKleMOvsjPM7njyQ-63" target="XcbO7vqb9bJJ0kghSSdQ-9" edge="1">
                    <mxGeometry relative="1" as="geometry"/>
                </mxCell>
                <mxCell id="t1fYcKleMOvsjPM7njyQ-63" value="flowchart predefined process&lt;br&gt;represents subprocess already drawn" style="verticalLabelPosition=middle;verticalAlign=middle;html=1;shape=process;whiteSpace=wrap;rounded=1;size=0.14;arcSize=6;strokeWidth=2;horizontal=1;labelPosition=center;align=center;labelBackgroundColor=none;" parent="1" vertex="1">
                    <mxGeometry x="40" y="1570" width="200" height="60" as="geometry"/>
                </mxCell>
                <mxCell id="t1fYcKleMOvsjPM7njyQ-69" value="flowchart terminator&lt;br&gt;represents starting or ending" style="strokeWidth=2;html=1;shape=mxgraph.flowchart.terminator;whiteSpace=wrap;labelBackgroundColor=none;" parent="1" vertex="1">
                    <mxGeometry x="40" y="1850" width="200" height="60" as="geometry"/>
                </mxCell>
                <mxCell id="XcbO7vqb9bJJ0kghSSdQ-4" value="" style="edgeStyle=orthogonalEdgeStyle;rounded=0;orthogonalLoop=1;jettySize=auto;html=1;fontColor=#FFFFFF;labelBackgroundColor=none;" parent="1" source="XcbO7vqb9bJJ0kghSSdQ-2" target="t1fYcKleMOvsjPM7njyQ-63" edge="1">
                    <mxGeometry relative="1" as="geometry"/>
                </mxCell>
                <mxCell id="XcbO7vqb9bJJ0kghSSdQ-2" value="flowchart display&lt;br&gt;represents information displayed" style="strokeWidth=2;html=1;shape=mxgraph.flowchart.display;whiteSpace=wrap;rounded=0;shadow=0;glass=0;comic=0;labelBackgroundColor=none;" parent="1" vertex="1">
                    <mxGeometry x="40" y="1450" width="200" height="60" as="geometry"/>
                </mxCell>
                <mxCell id="XcbO7vqb9bJJ0kghSSdQ-7" value="" style="edgeStyle=orthogonalEdgeStyle;rounded=0;orthogonalLoop=1;jettySize=auto;html=1;fontColor=#FFFFFF;labelBackgroundColor=none;" parent="1" source="XcbO7vqb9bJJ0kghSSdQ-5" target="t1fYcKleMOvsjPM7njyQ-55" edge="1">
                    <mxGeometry relative="1" as="geometry"/>
                </mxCell>
                <mxCell id="XcbO7vqb9bJJ0kghSSdQ-5" value="flowchart database" style="strokeWidth=2;html=1;shape=mxgraph.flowchart.database;whiteSpace=wrap;rounded=0;shadow=0;glass=0;comic=0;labelBackgroundColor=none;" parent="1" vertex="1">
                    <mxGeometry x="80" y="920" width="120" height="140" as="geometry"/>
                </mxCell>
                <mxCell id="XcbO7vqb9bJJ0kghSSdQ-12" value="" style="edgeStyle=orthogonalEdgeStyle;rounded=0;orthogonalLoop=1;jettySize=auto;html=1;fontColor=#FFFFFF;labelBackgroundColor=none;" parent="1" source="XcbO7vqb9bJJ0kghSSdQ-9" target="t1fYcKleMOvsjPM7njyQ-69" edge="1">
                    <mxGeometry relative="1" as="geometry"/>
                </mxCell>
                <mxCell id="XcbO7vqb9bJJ0kghSSdQ-9" value="flowchart manual operation&lt;br&gt;represents steps done manually" style="verticalLabelPosition=middle;verticalAlign=middle;html=1;shape=trapezoid;perimeter=trapezoidPerimeter;whiteSpace=wrap;size=0.23;arcSize=10;flipV=1;rounded=0;shadow=0;glass=0;comic=0;labelPosition=center;align=center;labelBackgroundColor=none;" parent="1" vertex="1">
                    <mxGeometry x="40" y="1710" width="200" height="60" as="geometry"/>
                </mxCell>
            </root>
        </mxGraphModel>
    </diagram>
    <diagram id="b8LEq6iYALmTpYq4ptu3" name="DFD">
        <mxGraphModel dx="822" dy="480" grid="1" gridSize="10" guides="1" tooltips="1" connect="1" arrows="1" fold="1" page="1" pageScale="1" pageWidth="2339" pageHeight="3300" background="none" math="0" shadow="0">
            <root>
                <mxCell id="0SXu1IqWU0nzYwYXobOZ-0"/>
                <mxCell id="0SXu1IqWU0nzYwYXobOZ-1" parent="0SXu1IqWU0nzYwYXobOZ-0"/>
                <mxCell id="0SXu1IqWU0nzYwYXobOZ-2" value="&lt;span style=&quot;font-weight: normal&quot;&gt;DFD symbols&lt;/span&gt;" style="swimlane;html=1;childLayout=stackLayout;resizeParent=1;resizeParentMax=0;startSize=20;rounded=1;shadow=0;glass=0;comic=0;labelBackgroundColor=none;align=center;" parent="0SXu1IqWU0nzYwYXobOZ-1" vertex="1">
                    <mxGeometry x="15" y="15" width="440" height="520" as="geometry"/>
                </mxCell>
                <mxCell id="0SXu1IqWU0nzYwYXobOZ-3" value="&lt;span style=&quot;font-weight: normal&quot;&gt;Yourdon and Coad&lt;/span&gt;" style="swimlane;html=1;startSize=20;align=center;labelBackgroundColor=none;" parent="0SXu1IqWU0nzYwYXobOZ-2" vertex="1">
                    <mxGeometry y="20" width="220" height="500" as="geometry">
                        <mxRectangle y="20" width="30" height="460" as="alternateBounds"/>
                    </mxGeometry>
                </mxCell>
                <mxCell id="0SXu1IqWU0nzYwYXobOZ-7" value="external entity" style="html=1;dashed=0;whitespace=wrap;rounded=1;shadow=0;glass=0;comic=0;labelBackgroundColor=none;align=center;" parent="0SXu1IqWU0nzYwYXobOZ-3" vertex="1">
                    <mxGeometry x="60" y="60" width="100" height="50" as="geometry"/>
                </mxCell>
                <mxCell id="0SXu1IqWU0nzYwYXobOZ-9" value="process" style="shape=ellipse;html=1;dashed=0;whitespace=wrap;aspect=fixed;perimeter=ellipsePerimeter;rounded=1;shadow=0;glass=0;comic=0;labelBackgroundColor=none;align=center;" parent="0SXu1IqWU0nzYwYXobOZ-3" vertex="1">
                    <mxGeometry x="60" y="160" width="100" height="100" as="geometry"/>
                </mxCell>
                <mxCell id="0SXu1IqWU0nzYwYXobOZ-11" value="data store" style="html=1;dashed=0;whitespace=wrap;shape=partialRectangle;right=0;rounded=1;shadow=0;glass=0;comic=0;labelBackgroundColor=none;align=center;" parent="0SXu1IqWU0nzYwYXobOZ-3" vertex="1">
                    <mxGeometry x="60" y="320" width="100" height="30" as="geometry"/>
                </mxCell>
                <mxCell id="0SXu1IqWU0nzYwYXobOZ-13" value="" style="endArrow=classic;html=1;strokeWidth=1;fontColor=#000000;labelBackgroundColor=none;" parent="0SXu1IqWU0nzYwYXobOZ-3" edge="1">
                    <mxGeometry width="50" height="50" relative="1" as="geometry">
                        <mxPoint x="60" y="410" as="sourcePoint"/>
                        <mxPoint x="150" y="410" as="targetPoint"/>
                    </mxGeometry>
                </mxCell>
                <mxCell id="0SXu1IqWU0nzYwYXobOZ-16" value="data flow" style="text;html=1;align=center;verticalAlign=middle;resizable=0;points=[];autosize=1;labelBackgroundColor=none;" parent="0SXu1IqWU0nzYwYXobOZ-3" vertex="1">
                    <mxGeometry x="80" y="390" width="60" height="20" as="geometry"/>
                </mxCell>
                <mxCell id="UyKNDZANO31MctRCtnSL-0" value="data flow" style="text;html=1;align=center;verticalAlign=middle;resizable=0;points=[];autosize=1;labelBackgroundColor=none;" parent="0SXu1IqWU0nzYwYXobOZ-3" vertex="1">
                    <mxGeometry x="80" y="390" width="60" height="20" as="geometry"/>
                </mxCell>
                <mxCell id="0SXu1IqWU0nzYwYXobOZ-4" value="Gane and Saarson" style="swimlane;html=1;startSize=20;rounded=1;fontStyle=0;labelBackgroundColor=none;" parent="0SXu1IqWU0nzYwYXobOZ-2" vertex="1">
                    <mxGeometry x="220" y="20" width="220" height="500" as="geometry">
                        <mxRectangle x="30" y="20" width="30" height="460" as="alternateBounds"/>
                    </mxGeometry>
                </mxCell>
                <mxCell id="0SXu1IqWU0nzYwYXobOZ-8" value="external entity" style="html=1;dashed=0;whitespace=wrap;rounded=1;shadow=0;glass=0;comic=0;labelBackgroundColor=none;align=center;" parent="0SXu1IqWU0nzYwYXobOZ-4" vertex="1">
                    <mxGeometry x="60" y="60" width="100" height="50" as="geometry"/>
                </mxCell>
                <mxCell id="0SXu1IqWU0nzYwYXobOZ-10" value="level&#10;&#10;process" style="swimlane;fontStyle=0;childLayout=stackLayout;horizontal=1;startSize=30;horizontalStack=0;resizeParent=1;resizeParentMax=0;resizeLast=0;collapsible=0;marginBottom=0;swimlaneFillColor=none;rounded=1;shadow=0;glass=0;comic=0;labelBackgroundColor=none;align=center;html=0;labelPosition=center;verticalLabelPosition=middle;verticalAlign=top;fillColor=none;strokeColor=#FFFFFF;" parent="0SXu1IqWU0nzYwYXobOZ-4" vertex="1">
                    <mxGeometry x="60" y="170" width="110" height="60" as="geometry"/>
                </mxCell>
                <mxCell id="0SXu1IqWU0nzYwYXobOZ-12" value="id&amp;nbsp; &amp;nbsp; &amp;nbsp; &amp;nbsp; &amp;nbsp;data store" style="html=1;dashed=0;whitespace=wrap;shape=mxgraph.dfd.dataStoreID;align=left;spacingLeft=3;points=[[0,0],[0.5,0],[1,0],[0,0.5],[1,0.5],[0,1],[0.5,1],[1,1]];rounded=1;shadow=0;glass=0;comic=0;labelBackgroundColor=none;" parent="0SXu1IqWU0nzYwYXobOZ-4" vertex="1">
                    <mxGeometry x="60" y="320" width="100" height="30" as="geometry"/>
                </mxCell>
                <mxCell id="0SXu1IqWU0nzYwYXobOZ-14" value="" style="endArrow=classic;html=1;strokeWidth=1;fontColor=#000000;labelBackgroundColor=none;" parent="0SXu1IqWU0nzYwYXobOZ-4" edge="1">
                    <mxGeometry width="50" height="50" relative="1" as="geometry">
                        <mxPoint x="65" y="410" as="sourcePoint"/>
                        <mxPoint x="155" y="410" as="targetPoint"/>
                    </mxGeometry>
                </mxCell>
                <mxCell id="0SXu1IqWU0nzYwYXobOZ-18" value="data flow" style="text;html=1;align=center;verticalAlign=middle;resizable=0;points=[];autosize=1;labelBackgroundColor=none;" parent="0SXu1IqWU0nzYwYXobOZ-4" vertex="1">
                    <mxGeometry x="80" y="390" width="60" height="20" as="geometry"/>
                </mxCell>
            </root>
        </mxGraphModel>
    </diagram>
    <diagram id="4YDl_8AQS7CFEggOsk8C" name="BPMN">
        <mxGraphModel dx="1649" dy="480" grid="1" gridSize="10" guides="1" tooltips="1" connect="1" arrows="1" fold="1" page="1" pageScale="1" pageWidth="827" pageHeight="1169" math="0" shadow="0">
            <root>
                <mxCell id="K6OYYqdD8ATvIEd_lg5Y-0"/>
                <mxCell id="K6OYYqdD8ATvIEd_lg5Y-1" parent="K6OYYqdD8ATvIEd_lg5Y-0"/>
                <mxCell id="a2iJeDu8ZyZ31uw2YpDt-31" value="" style="group;strokeColor=none;strokeWidth=1;perimeterSpacing=0;rounded=0;collapsible=0;spacingTop=0;spacingLeft=4;fillColor=none;container=0;" parent="K6OYYqdD8ATvIEd_lg5Y-1" vertex="1" connectable="0">
                    <mxGeometry x="100" y="30" width="401" height="354" as="geometry">
                        <mxRectangle x="54" y="44" width="50" height="40" as="alternateBounds"/>
                    </mxGeometry>
                </mxCell>
                <mxCell id="a2iJeDu8ZyZ31uw2YpDt-80" value="BPMN" style="swimlane;html=1;childLayout=stackLayout;resizeParent=1;resizeParentMax=0;horizontal=1;startSize=20;horizontalStack=0;rounded=0;strokeWidth=1;align=right;fontStyle=0;collapsible=0;labelPosition=left;verticalLabelPosition=middle;verticalAlign=middle;fillColor=#ffffff;" parent="K6OYYqdD8ATvIEd_lg5Y-1" vertex="1">
                    <mxGeometry x="15" y="15" width="570" height="670" as="geometry"/>
                </mxCell>
                <mxCell id="a2iJeDu8ZyZ31uw2YpDt-81" value="&lt;div style=&quot;text-align: justify&quot;&gt;events&lt;/div&gt;" style="swimlane;html=1;startSize=20;horizontal=0;labelPosition=center;verticalLabelPosition=middle;align=center;verticalAlign=middle;fontStyle=0;collapsible=0;swimlaneLine=1;strokeColor=#000000;" parent="a2iJeDu8ZyZ31uw2YpDt-80" vertex="1">
                    <mxGeometry y="20" width="570" height="90" as="geometry"/>
                </mxCell>
                <mxCell id="a2iJeDu8ZyZ31uw2YpDt-82" value="start" style="shape=mxgraph.bpmn.shape;html=1;verticalLabelPosition=bottom;labelBackgroundColor=none;verticalAlign=top;align=center;perimeter=ellipsePerimeter;outlineConnect=0;outline=standard;symbol=general;labelPosition=center;spacingLeft=0;" parent="a2iJeDu8ZyZ31uw2YpDt-81" vertex="1">
                    <mxGeometry x="40" y="20" width="50" height="50" as="geometry"/>
                </mxCell>
                <mxCell id="a2iJeDu8ZyZ31uw2YpDt-83" value="end" style="shape=mxgraph.bpmn.shape;html=1;verticalLabelPosition=bottom;labelBackgroundColor=none;verticalAlign=top;align=center;perimeter=ellipsePerimeter;outlineConnect=0;outline=end;symbol=general;labelPosition=center;spacingLeft=0;" parent="a2iJeDu8ZyZ31uw2YpDt-81" vertex="1">
                    <mxGeometry x="278" y="20" width="50" height="50" as="geometry"/>
                </mxCell>
                <mxCell id="a2iJeDu8ZyZ31uw2YpDt-84" value="intermediate" style="shape=mxgraph.bpmn.shape;html=1;verticalLabelPosition=bottom;labelBackgroundColor=none;verticalAlign=top;align=center;perimeter=ellipsePerimeter;outlineConnect=0;outline=throwing;symbol=general;labelPosition=center;spacingLeft=0;" parent="a2iJeDu8ZyZ31uw2YpDt-81" vertex="1">
                    <mxGeometry x="160" y="20" width="50" height="50" as="geometry"/>
                </mxCell>
                <mxCell id="a2iJeDu8ZyZ31uw2YpDt-85" value="activities" style="swimlane;html=1;startSize=20;horizontal=0;fontStyle=0;collapsible=0;" parent="a2iJeDu8ZyZ31uw2YpDt-80" vertex="1">
                    <mxGeometry y="110" width="570" height="110" as="geometry"/>
                </mxCell>
                <mxCell id="E5CgbUWFhswzzXsZIfZ_-0" value="Sub-Process" style="html=1;whiteSpace=wrap;rounded=1;dropTarget=0;align=center;labelPosition=center;verticalLabelPosition=bottom;verticalAlign=top;" parent="a2iJeDu8ZyZ31uw2YpDt-85" vertex="1">
                    <mxGeometry x="164" y="30" width="80" height="50" as="geometry"/>
                </mxCell>
                <mxCell id="E5CgbUWFhswzzXsZIfZ_-1" value="" style="html=1;shape=plus;outlineConnect=0;" parent="E5CgbUWFhswzzXsZIfZ_-0" vertex="1">
                    <mxGeometry x="0.5" y="1" width="14" height="14" relative="1" as="geometry">
                        <mxPoint x="-7" y="-14" as="offset"/>
                    </mxGeometry>
                </mxCell>
                <mxCell id="a2iJeDu8ZyZ31uw2YpDt-86" value="task" style="shape=ext;rounded=1;html=1;whiteSpace=wrap;align=center;labelPosition=center;verticalLabelPosition=bottom;verticalAlign=top;spacingLeft=0;" parent="a2iJeDu8ZyZ31uw2YpDt-85" vertex="1">
                    <mxGeometry x="37.5" y="30" width="75" height="50" as="geometry"/>
                </mxCell>
                <mxCell id="a2iJeDu8ZyZ31uw2YpDt-87" value="gateway" style="swimlane;html=1;startSize=20;horizontal=0;fontStyle=0;collapsible=0;" parent="a2iJeDu8ZyZ31uw2YpDt-80" vertex="1">
                    <mxGeometry y="220" width="570" height="120" as="geometry"/>
                </mxCell>
                <mxCell id="F0RLklyAbE4DoCmIOT03-0" value="link catching&lt;br&gt;jump to" style="shape=mxgraph.bpmn.shape;html=1;verticalLabelPosition=bottom;labelBackgroundColor=none;verticalAlign=top;align=center;perimeter=ellipsePerimeter;outlineConnect=0;outline=catching;symbol=link;rounded=1;fillColor=none;" parent="a2iJeDu8ZyZ31uw2YpDt-87" vertex="1">
                    <mxGeometry x="470" y="30" width="50" height="50" as="geometry"/>
                </mxCell>
                <mxCell id="a2iJeDu8ZyZ31uw2YpDt-88" value="&lt;font color=&quot;#ffffff&quot; style=&quot;&quot;&gt;exclusive&lt;/font&gt;" style="shape=mxgraph.bpmn.shape;html=1;verticalLabelPosition=bottom;labelBackgroundColor=none;verticalAlign=top;align=center;perimeter=rhombusPerimeter;background=gateway;outlineConnect=0;outline=none;symbol=exclusiveGw;spacingLeft=0;fillColor=none;" parent="a2iJeDu8ZyZ31uw2YpDt-87" vertex="1">
                    <mxGeometry x="50" y="30" width="50" height="50" as="geometry"/>
                </mxCell>
                <mxCell id="a2iJeDu8ZyZ31uw2YpDt-89" value="&lt;span style=&quot;&quot;&gt;parallel&lt;/span&gt;" style="shape=mxgraph.bpmn.shape;html=1;verticalLabelPosition=bottom;labelBackgroundColor=none;verticalAlign=top;align=center;perimeter=rhombusPerimeter;background=gateway;outlineConnect=0;outline=none;symbol=parallelGw;spacingLeft=0;" parent="a2iJeDu8ZyZ31uw2YpDt-87" vertex="1">
                    <mxGeometry x="170" y="30" width="50" height="50" as="geometry"/>
                </mxCell>
                <mxCell id="LmZAyWVDy1wjdzMC1RJE-0" value="event" style="shape=mxgraph.bpmn.shape;html=1;verticalLabelPosition=bottom;labelBackgroundColor=none;verticalAlign=top;align=center;perimeter=rhombusPerimeter;background=gateway;outlineConnect=0;outline=boundInt;symbol=multiple;rounded=1;shadow=0;glass=0;comic=0;strokeColor=#FFFFFF;strokeWidth=1;fillColor=none;gradientColor=none;fontColor=#000000;" parent="a2iJeDu8ZyZ31uw2YpDt-87" vertex="1">
                    <mxGeometry x="380" y="30" width="50" height="50" as="geometry"/>
                </mxCell>
                <mxCell id="LmZAyWVDy1wjdzMC1RJE-1" value="inclusive" style="shape=mxgraph.bpmn.shape;html=1;verticalLabelPosition=bottom;labelBackgroundColor=none;verticalAlign=top;align=center;perimeter=rhombusPerimeter;background=gateway;outlineConnect=0;outline=end;symbol=general;rounded=1;shadow=0;glass=0;comic=0;strokeColor=#FFFFFF;strokeWidth=1;fillColor=none;gradientColor=none;fontColor=#000000;" parent="a2iJeDu8ZyZ31uw2YpDt-87" vertex="1">
                    <mxGeometry x="290" y="30" width="50" height="50" as="geometry"/>
                </mxCell>
                <mxCell id="a2iJeDu8ZyZ31uw2YpDt-90" value="flow" style="swimlane;html=1;startSize=20;horizontal=0;fontStyle=0;collapsible=0;" parent="a2iJeDu8ZyZ31uw2YpDt-80" vertex="1">
                    <mxGeometry y="340" width="570" height="110" as="geometry"/>
                </mxCell>
                <mxCell id="a2iJeDu8ZyZ31uw2YpDt-91" value="" style="endArrow=block;endFill=1;endSize=6;html=1;spacingLeft=0;" parent="a2iJeDu8ZyZ31uw2YpDt-90" edge="1">
                    <mxGeometry width="100" relative="1" as="geometry">
                        <mxPoint x="40" y="64.25" as="sourcePoint"/>
                        <mxPoint x="140" y="64.25" as="targetPoint"/>
                    </mxGeometry>
                </mxCell>
                <mxCell id="a2iJeDu8ZyZ31uw2YpDt-92" value="sequence flow" style="text;html=1;align=center;verticalAlign=middle;resizable=0;points=[];autosize=1;spacingLeft=0;" parent="a2iJeDu8ZyZ31uw2YpDt-90" vertex="1">
                    <mxGeometry x="45" y="44.75" width="90" height="20" as="geometry"/>
                </mxCell>
                <mxCell id="a2iJeDu8ZyZ31uw2YpDt-93" value="" style="group;spacingLeft=0;" parent="a2iJeDu8ZyZ31uw2YpDt-90" vertex="1" connectable="0">
                    <mxGeometry x="165" y="44.75" width="105" height="20" as="geometry"/>
                </mxCell>
                <mxCell id="a2iJeDu8ZyZ31uw2YpDt-94" value="" style="startArrow=oval;startFill=0;startSize=7;endArrow=block;endFill=0;endSize=10;dashed=1;html=1;spacingLeft=0;" parent="a2iJeDu8ZyZ31uw2YpDt-93" edge="1">
                    <mxGeometry width="100" relative="1" as="geometry">
                        <mxPoint x="5" y="19" as="sourcePoint"/>
                        <mxPoint x="105" y="19" as="targetPoint"/>
                    </mxGeometry>
                </mxCell>
                <mxCell id="a2iJeDu8ZyZ31uw2YpDt-95" value="message flow" style="text;html=1;align=center;verticalAlign=middle;resizable=0;points=[];autosize=1;spacingLeft=0;" parent="a2iJeDu8ZyZ31uw2YpDt-93" vertex="1">
                    <mxGeometry width="90" height="20" as="geometry"/>
                </mxCell>
                <mxCell id="NtHi-PNT-zYLvqrIQnqI-0" value="" style="endArrow=none;endFill=0;endSize=6;html=1;dashed=1;" parent="a2iJeDu8ZyZ31uw2YpDt-90" edge="1">
                    <mxGeometry width="100" relative="1" as="geometry">
                        <mxPoint x="290" y="64.75" as="sourcePoint"/>
                        <mxPoint x="390" y="64.75" as="targetPoint"/>
                    </mxGeometry>
                </mxCell>
                <mxCell id="NtHi-PNT-zYLvqrIQnqI-2" value="association" style="text;html=1;align=center;verticalAlign=middle;resizable=0;points=[];autosize=1;" parent="a2iJeDu8ZyZ31uw2YpDt-90" vertex="1">
                    <mxGeometry x="290" y="44.75" width="80" height="20" as="geometry"/>
                </mxCell>
                <mxCell id="LmZAyWVDy1wjdzMC1RJE-4" value="data" style="swimlane;html=1;startSize=20;horizontal=0;fontStyle=0;collapsible=0;" parent="a2iJeDu8ZyZ31uw2YpDt-80" vertex="1">
                    <mxGeometry y="450" width="570" height="110" as="geometry"/>
                </mxCell>
                <mxCell id="LmZAyWVDy1wjdzMC1RJE-12" value="data object" style="shape=note;whiteSpace=wrap;size=16;html=1;rounded=1;shadow=0;glass=0;comic=0;strokeWidth=1;align=center;labelBackgroundColor=none;" parent="LmZAyWVDy1wjdzMC1RJE-4" vertex="1">
                    <mxGeometry x="50" y="25" width="40" height="60" as="geometry"/>
                </mxCell>
                <mxCell id="LmZAyWVDy1wjdzMC1RJE-15" value="data store" style="shape=datastore;whiteSpace=wrap;html=1;rounded=1;shadow=0;glass=0;comic=0;strokeWidth=1;align=center;" parent="LmZAyWVDy1wjdzMC1RJE-4" vertex="1">
                    <mxGeometry x="170" y="25" width="60" height="60" as="geometry"/>
                </mxCell>
                <mxCell id="LmZAyWVDy1wjdzMC1RJE-17" value="link" style="swimlane;html=1;startSize=20;horizontal=0;fontStyle=0;collapsible=0;" parent="a2iJeDu8ZyZ31uw2YpDt-80" vertex="1">
                    <mxGeometry y="560" width="570" height="110" as="geometry"/>
                </mxCell>
                <UserObject label="BPMN 2.0 Symbol Reference" link="https://camunda.com/bpmn/reference/" id="LmZAyWVDy1wjdzMC1RJE-20">
                    <mxCell style="text;html=1;align=left;verticalAlign=bottom;resizable=0;points=[];autosize=1;" parent="LmZAyWVDy1wjdzMC1RJE-17" vertex="1">
                        <mxGeometry x="30" y="10" width="170" height="20" as="geometry"/>
                    </mxCell>
                </UserObject>
                <UserObject label="BPMN quick start" link="https://www.process.st/bpmn-tutorial/" id="LmZAyWVDy1wjdzMC1RJE-21">
                    <mxCell style="text;html=1;align=left;verticalAlign=bottom;resizable=0;points=[];autosize=1;" parent="LmZAyWVDy1wjdzMC1RJE-17" vertex="1">
                        <mxGeometry x="30" y="30" width="110" height="20" as="geometry"/>
                    </mxCell>
                </UserObject>
                <UserObject label="BPMN tutorial" link="https://www.visual-paradigm.com/tutorials/how-to-use-data-object-in-bpd.jsp#" id="vqLvii-mWUcqpEUlyQbk-0">
                    <mxCell style="text;html=1;align=left;verticalAlign=middle;resizable=0;points=[];autosize=1;" parent="LmZAyWVDy1wjdzMC1RJE-17" vertex="1">
                        <mxGeometry x="30" y="50" width="90" height="20" as="geometry"/>
                    </mxCell>
                </UserObject>
                <mxCell id="dUZ_4Rpok2xqBfVeD7GQ-0" value="" style="edgeStyle=orthogonalEdgeStyle;rounded=0;orthogonalLoop=1;jettySize=auto;html=1;labelBackgroundColor=none;fontColor=#FFFFFF;exitX=0.5;exitY=1;exitDx=0;exitDy=0;" parent="a2iJeDu8ZyZ31uw2YpDt-80" source="a2iJeDu8ZyZ31uw2YpDt-82" target="a2iJeDu8ZyZ31uw2YpDt-86" edge="1">
                    <mxGeometry relative="1" as="geometry">
                        <mxPoint x="75" y="120" as="sourcePoint"/>
                    </mxGeometry>
                </mxCell>
            </root>
        </mxGraphModel>
    </diagram>
    <diagram id="Qrs8Yb9Irhe_dAK9o0w2" name="Relations">
        <mxGraphModel dx="822" dy="480" grid="1" gridSize="10" guides="1" tooltips="1" connect="1" arrows="1" fold="1" page="1" pageScale="1" pageWidth="827" pageHeight="1169" math="0" shadow="0">
            <root>
                <mxCell id="IVTYH1bf-SlGI8UJrFVD-0"/>
                <mxCell id="IVTYH1bf-SlGI8UJrFVD-1" parent="IVTYH1bf-SlGI8UJrFVD-0"/>
                <mxCell id="IVTYH1bf-SlGI8UJrFVD-2" value="" style="group" parent="IVTYH1bf-SlGI8UJrFVD-1" vertex="1" connectable="0">
                    <mxGeometry x="15" y="65" width="380" height="230" as="geometry"/>
                </mxCell>
                <mxCell id="IVTYH1bf-SlGI8UJrFVD-3" value="" style="ellipse;whiteSpace=wrap;html=1;" parent="IVTYH1bf-SlGI8UJrFVD-2" vertex="1">
                    <mxGeometry width="380" height="230" as="geometry"/>
                </mxCell>
                <mxCell id="IVTYH1bf-SlGI8UJrFVD-4" value="" style="ellipse;whiteSpace=wrap;html=1;" parent="IVTYH1bf-SlGI8UJrFVD-2" vertex="1">
                    <mxGeometry x="90" y="75" width="270" height="130" as="geometry"/>
                </mxCell>
                <mxCell id="IVTYH1bf-SlGI8UJrFVD-5" value="" style="ellipse;whiteSpace=wrap;html=1;" parent="IVTYH1bf-SlGI8UJrFVD-2" vertex="1">
                    <mxGeometry x="190" y="120" width="140" height="65" as="geometry"/>
                </mxCell>
                <mxCell id="IVTYH1bf-SlGI8UJrFVD-6" value="Artificial &lt;br&gt;intelligence" style="text;html=1;align=center;verticalAlign=middle;resizable=0;points=[];autosize=1;" parent="IVTYH1bf-SlGI8UJrFVD-2" vertex="1">
                    <mxGeometry x="80" y="35" width="80" height="30" as="geometry"/>
                </mxCell>
                <mxCell id="IVTYH1bf-SlGI8UJrFVD-7" value="Maching&lt;br&gt;learning" style="text;html=1;align=center;verticalAlign=middle;resizable=0;points=[];autosize=1;" parent="IVTYH1bf-SlGI8UJrFVD-2" vertex="1">
                    <mxGeometry x="150" y="90" width="60" height="30" as="geometry"/>
                </mxCell>
                <mxCell id="IVTYH1bf-SlGI8UJrFVD-8" value="Deep&lt;br&gt;learning" style="text;html=1;align=center;verticalAlign=middle;resizable=0;points=[];autosize=1;" parent="IVTYH1bf-SlGI8UJrFVD-2" vertex="1">
                    <mxGeometry x="230" y="137.5" width="60" height="30" as="geometry"/>
                </mxCell>
                <mxCell id="IVTYH1bf-SlGI8UJrFVD-9" value="inclusive" style="text;html=1;align=center;verticalAlign=middle;resizable=0;points=[];autosize=1;fillColor=#ed4040;fontColor=#FFFFFF;" parent="IVTYH1bf-SlGI8UJrFVD-1" vertex="1">
                    <mxGeometry x="175" y="15" width="60" height="20" as="geometry"/>
                </mxCell>
                <mxCell id="IVTYH1bf-SlGI8UJrFVD-10" value="Input/Output" style="text;html=1;align=center;verticalAlign=middle;resizable=0;points=[];autosize=1;fillColor=#ED4040;fontColor=#FFFFFF;" parent="IVTYH1bf-SlGI8UJrFVD-1" vertex="1">
                    <mxGeometry x="600" y="15" width="80" height="20" as="geometry"/>
                </mxCell>
                <mxCell id="IVTYH1bf-SlGI8UJrFVD-11" value="" style="group" parent="IVTYH1bf-SlGI8UJrFVD-1" vertex="1" connectable="0">
                    <mxGeometry x="490" y="65" width="312" height="140" as="geometry"/>
                </mxCell>
                <mxCell id="IVTYH1bf-SlGI8UJrFVD-12" value="" style="group" parent="IVTYH1bf-SlGI8UJrFVD-11" vertex="1" connectable="0">
                    <mxGeometry width="312" height="60" as="geometry"/>
                </mxCell>
                <mxCell id="IVTYH1bf-SlGI8UJrFVD-13" value="Answers" style="text;html=1;align=left;verticalAlign=middle;resizable=0;points=[];autosize=1;" parent="IVTYH1bf-SlGI8UJrFVD-12" vertex="1">
                    <mxGeometry x="252" y="20" width="60" height="20" as="geometry"/>
                </mxCell>
                <mxCell id="IVTYH1bf-SlGI8UJrFVD-14" value="" style="group" parent="IVTYH1bf-SlGI8UJrFVD-12" vertex="1" connectable="0">
                    <mxGeometry width="248" height="60" as="geometry"/>
                </mxCell>
                <mxCell id="IVTYH1bf-SlGI8UJrFVD-15" value="Rules" style="text;html=1;align=right;verticalAlign=middle;resizable=0;points=[];autosize=1;" parent="IVTYH1bf-SlGI8UJrFVD-14" vertex="1">
                    <mxGeometry y="5" width="50" height="20" as="geometry"/>
                </mxCell>
                <mxCell id="IVTYH1bf-SlGI8UJrFVD-16" value="Data" style="text;html=1;align=right;verticalAlign=middle;resizable=0;points=[];autosize=1;" parent="IVTYH1bf-SlGI8UJrFVD-14" vertex="1">
                    <mxGeometry x="10" y="35" width="40" height="20" as="geometry"/>
                </mxCell>
                <mxCell id="IVTYH1bf-SlGI8UJrFVD-17" style="edgeStyle=orthogonalEdgeStyle;rounded=0;orthogonalLoop=1;jettySize=auto;html=1;" parent="IVTYH1bf-SlGI8UJrFVD-14" source="IVTYH1bf-SlGI8UJrFVD-18" edge="1">
                    <mxGeometry relative="1" as="geometry">
                        <mxPoint x="248" y="30" as="targetPoint"/>
                    </mxGeometry>
                </mxCell>
                <mxCell id="IVTYH1bf-SlGI8UJrFVD-18" value="Classical&lt;br&gt;programming" style="rounded=0;whiteSpace=wrap;html=1;" parent="IVTYH1bf-SlGI8UJrFVD-14" vertex="1">
                    <mxGeometry x="88" width="120" height="60" as="geometry"/>
                </mxCell>
                <mxCell id="IVTYH1bf-SlGI8UJrFVD-19" style="edgeStyle=orthogonalEdgeStyle;rounded=0;orthogonalLoop=1;jettySize=auto;html=1;entryX=0;entryY=0.25;entryDx=0;entryDy=0;" parent="IVTYH1bf-SlGI8UJrFVD-14" source="IVTYH1bf-SlGI8UJrFVD-15" target="IVTYH1bf-SlGI8UJrFVD-18" edge="1">
                    <mxGeometry relative="1" as="geometry"/>
                </mxCell>
                <mxCell id="IVTYH1bf-SlGI8UJrFVD-20" style="edgeStyle=orthogonalEdgeStyle;rounded=0;orthogonalLoop=1;jettySize=auto;html=1;entryX=0;entryY=0.75;entryDx=0;entryDy=0;" parent="IVTYH1bf-SlGI8UJrFVD-14" source="IVTYH1bf-SlGI8UJrFVD-16" target="IVTYH1bf-SlGI8UJrFVD-18" edge="1">
                    <mxGeometry relative="1" as="geometry"/>
                </mxCell>
                <mxCell id="IVTYH1bf-SlGI8UJrFVD-21" value="" style="group" parent="IVTYH1bf-SlGI8UJrFVD-11" vertex="1" connectable="0">
                    <mxGeometry y="80" width="312" height="60" as="geometry"/>
                </mxCell>
                <mxCell id="IVTYH1bf-SlGI8UJrFVD-22" value="Rules" style="text;html=1;align=left;verticalAlign=middle;resizable=0;points=[];autosize=1;" parent="IVTYH1bf-SlGI8UJrFVD-21" vertex="1">
                    <mxGeometry x="252" y="20" width="50" height="20" as="geometry"/>
                </mxCell>
                <mxCell id="IVTYH1bf-SlGI8UJrFVD-23" value="" style="group" parent="IVTYH1bf-SlGI8UJrFVD-21" vertex="1" connectable="0">
                    <mxGeometry width="248" height="60" as="geometry"/>
                </mxCell>
                <mxCell id="IVTYH1bf-SlGI8UJrFVD-24" value="Data" style="text;html=1;align=right;verticalAlign=middle;resizable=0;points=[];autosize=1;" parent="IVTYH1bf-SlGI8UJrFVD-23" vertex="1">
                    <mxGeometry x="10" y="5" width="40" height="20" as="geometry"/>
                </mxCell>
                <mxCell id="IVTYH1bf-SlGI8UJrFVD-25" value="Answers" style="text;html=1;align=right;verticalAlign=middle;resizable=0;points=[];autosize=1;" parent="IVTYH1bf-SlGI8UJrFVD-23" vertex="1">
                    <mxGeometry x="-10" y="35" width="60" height="20" as="geometry"/>
                </mxCell>
                <mxCell id="IVTYH1bf-SlGI8UJrFVD-26" style="edgeStyle=orthogonalEdgeStyle;rounded=0;orthogonalLoop=1;jettySize=auto;html=1;" parent="IVTYH1bf-SlGI8UJrFVD-23" source="IVTYH1bf-SlGI8UJrFVD-27" edge="1">
                    <mxGeometry relative="1" as="geometry">
                        <mxPoint x="248" y="30" as="targetPoint"/>
                    </mxGeometry>
                </mxCell>
                <mxCell id="IVTYH1bf-SlGI8UJrFVD-27" value="Maching&lt;br&gt;learning" style="rounded=0;whiteSpace=wrap;html=1;" parent="IVTYH1bf-SlGI8UJrFVD-23" vertex="1">
                    <mxGeometry x="88" width="120" height="60" as="geometry"/>
                </mxCell>
                <mxCell id="IVTYH1bf-SlGI8UJrFVD-28" style="edgeStyle=orthogonalEdgeStyle;rounded=0;orthogonalLoop=1;jettySize=auto;html=1;entryX=0;entryY=0.25;entryDx=0;entryDy=0;" parent="IVTYH1bf-SlGI8UJrFVD-23" source="IVTYH1bf-SlGI8UJrFVD-24" target="IVTYH1bf-SlGI8UJrFVD-27" edge="1">
                    <mxGeometry relative="1" as="geometry"/>
                </mxCell>
                <mxCell id="IVTYH1bf-SlGI8UJrFVD-29" style="edgeStyle=orthogonalEdgeStyle;rounded=0;orthogonalLoop=1;jettySize=auto;html=1;entryX=0;entryY=0.75;entryDx=0;entryDy=0;" parent="IVTYH1bf-SlGI8UJrFVD-23" source="IVTYH1bf-SlGI8UJrFVD-25" target="IVTYH1bf-SlGI8UJrFVD-27" edge="1">
                    <mxGeometry relative="1" as="geometry"/>
                </mxCell>
            </root>
        </mxGraphModel>
    </diagram>
</mxfile>
